<svg xmlns="http://www.w3.org/2000/svg" width="177" height="42" viewBox="0 0 177 42">
    <g fill="none" fill-rule="evenodd">
        <g fill="#2E7EEE">
            <g>
                <g>
                    <path d="M21.266 34.997c-1.742.723-3.653 1.123-5.657 1.123s-3.914-.4-5.656-1.123zm12.879 0c-1.742.723-3.652 1.123-5.656 1.123-2.005 0-3.915-.4-5.657-1.123zm-14.521-1.835c.134.1.27.2.408.296l.42.282c-.284-.183-.56-.376-.828-.578h17.73c-.536.403-1.1.772-1.692 1.101H21.32l-.002-.001-12.881.001c-.591-.329-1.156-.697-1.693-1.101zm155.642-22.03v8.633h-7.707v1.167h8.734v1.644h-8.734v10.159h-4.118l-.001-10.159h-8.732v-1.643l8.732-.001v-1.167h-7.706v-8.633h19.532zm-81.68 5.144v16.43h-3.09v-16.43h3.09zm-16.261 8.832v5.956h2.06v1.642h-30.07v-1.642h2.06l-.002-5.956h25.952zm75.57-8.82v14.774h2.251v1.644h-6.37V17.93h-2.551v-1.643h6.67zm9.06 7.232l-1.754 9.187h-4.12l1.755-9.187h4.12zm11.051 0l2.797 9.187h-4.118l-2.798-9.187h4.119zm-88.08-7.244v16.43h-3.08v-16.43h3.08zM134 22.85h4.119l3.015 8.213.51 1.644h-25.08l.515-1.644 3.899-11.091h-6.801V18.33h29.854v1.644l-18.934-.001-3.9 11.091h15.819l-3.016-8.213zm-22.496-10.69v1.644h-6.135v2.874h6.508v1.644h-6.347l6.385 3.906v1.643l-2.264-1.217v10.053h-3.09v-11.79l-.412-.275-2.505-1.556-2 1.228-.546.346-2.363 12.047h-3.295l2.12-10.216-2.532 1.66v-1.64l6.715-4.19h-6.715v-1.643h6.527v-2.874h-6.09V12.16h16.039zM89.26 10.106v3.287h4.324v1.644h-4.324V32.7h-3.09V15.037h-4.325v-1.644h4.325v-3.287h3.09zm-74.21 21.22c.97.327 2.002.519 3.075.548l-.266-.27-.26-.278h10.322c1.06.36 2.194.555 3.375.555 1.183 0 2.319-.196 3.379-.555h4.7c-.355.386-.727.755-1.12 1.102H18.724c-.204-.18-.404-.363-.598-.554l.598.553H5.842c-.392-.347-.766-.715-1.12-1.102zm58.566-4.575H69.91v4.313h3.707v-4.313zm-7.414 0h-3.707v4.313h3.707v-4.313zm-7.414 0h-3.707v4.313h3.707v-4.313zM24.626 29.49c.077.063.153.125.231.186.078-.06.155-.123.232-.186h2.84c-.25.38-.518.748-.802 1.102h-.87l-.003-.001h-9.282c-.285-.354-.554-.72-.805-1.101zm16.18 0c-.25.38-.518.747-.802 1.102h-3.661c.577-.317 1.122-.686 1.626-1.102zm-29.06 0c.505.416 1.05.785 1.63 1.102H4.093c-.284-.354-.551-.722-.802-1.102zm17.458-2.386c-.24.57-.513 1.121-.82 1.652h-2.492c.497-.504.944-1.057 1.332-1.652zm-19.592 0c.387.595.832 1.148 1.33 1.652H2.833c-.306-.53-.582-1.082-.821-1.652zm32.473 0c-.24.57-.514 1.121-.822 1.652h-2.49c.497-.504.943-1.057 1.33-1.652zm-19.594 0c.387.595.834 1.148 1.332 1.652h-8.108c-.307-.531-.582-1.082-.822-1.652zm7.486-2.387c-.13.564-.293 1.115-.486 1.652H27.66c.284-.525.525-1.077.716-1.652zm-21.519 0c.192.575.433 1.127.717 1.652H1.728c-.192-.537-.357-1.088-.487-1.652zm34.399 0c-.13.564-.295 1.115-.488 1.652h-1.83c.284-.525.526-1.077.718-1.652zm-21.519 0c.192.575.433 1.127.717 1.652h-7.448c-.192-.537-.356-1.088-.486-1.652zm39.913-8.038v7.401h-4.12V16.68h4.12zm3.091 5.372l13.355.58v1.233l-13.355-.58V22.05zm-9.27-4.51v5.718h-4.12v-5.718h4.12zM28.489 6.72c8.14 0 14.74 6.577 14.746 14.693h-1.442c-.006-5.775-4.703-10.454-10.496-10.454-1.589 0-3.094.353-4.444.984-.08-.094-.16-.187-.242-.28l.242.28c-.096.044-.192.09-.286.139l.286-.14c2.167 2.559 3.476 5.862 3.479 9.471H28.89c-.004-3.349-1.587-6.328-4.044-8.24l-.243.194c-2.319 1.917-3.798 4.809-3.801 8.046h-7.059c.003-4.088 1.68-7.785 4.384-10.448l.347-.33-.347.33c-5.67.142-10.222 4.762-10.228 10.448H.84C.846 13.297 7.446 6.72 15.586 6.72c2.314 0 4.503.533 6.451 1.48h.001c1.949-.947 4.138-1.48 6.45-1.48zm39.98 9.959v2.702l9.228-1.064v1.233l-13.355 1.68v-4.551h4.128zm102.678-.409h-3.588v1.851h3.588V16.27zm-7.707 0h-3.588v1.851h3.588V16.27zM58.78 10.105v2.055h11.125v-2.055h4.121v2.055l5.358-.003v1.646h-5.358v2.054h-4.12v-2.054H58.78v2.054H54.66v-2.054h-5.357V12.16h5.357v-2.055h4.12zm92.747.009l1.368 4.587h-4.119l-1.368-4.587h4.12zm19.62 2.661h-3.588v1.851h3.588v-1.851zm-7.707 0h-3.588v1.851h3.588v-1.851zm-22.75-.616v1.644h-23.175v-1.644h23.175z" transform="translate(-150 -14) translate(-240) translate(390 14)"/>
                </g>
            </g>
        </g>
    </g>
</svg>
